<?xml version="1.0" encoding="UTF-8"?><svg xmlns="http://www.w3.org/2000/svg" viewBox="0 0 227 227"><defs><style>.d{fill:#fff;}.e{fill:none;stroke:#ea5533;stroke-miterlimit:10;stroke-width:3px;}.f{font-family:BerlinSansFBDemi-Bold, Berlin Sans FB Demi;font-size:26.99px;}.g{fill:#ea5534;}</style></defs><g id="a"><text class="f" transform="translate(35.57 147.19)"><tspan class="d" x="0" y="0">PICHOS</tspan><tspan class="g" x="94.02" y="0">FILMS</tspan></text></g><g id="b"/><g id="c"><g><path class="g" d="M96.21,105.85l-6.54-27.45s-5.23-1.96-3.27-5.88,5.23-3.92,5.23-3.92c0,0-1.96-7.08,4.58-8.44,0,0-.65-9.86,8.5-11.17s9.15,5.88,9.15,5.88c0,0,6.54-5.23,11.11,1.31,0,0,4.58-1.96,6.54,1.96,0,0,5.23-3.92,9.15,1.31s.65,8.5,.65,8.5c0,0,5.23,4.58,1.31,9.15,0,0-1.31,1.31-3.27,1.31l-8.5,35.95-15.83,7.8-16.85-9.11-1.96-7.19Z"/><polygon class="d" points="116.52 117.66 120.44 115.7 123.06 85.64 117.83 87.6 116.52 117.66"/><polygon class="d" points="112.6 117.42 108.68 115.7 107.37 85.64 112.6 87.45 112.6 117.42"/><polygon class="d" points="104.1 113.09 100.18 111.13 94.95 81.06 101.49 83.68 104.1 113.09"/><polygon class="d" points="125.02 113.74 128.94 111.78 134.82 81.06 128.94 83.68 125.02 113.74"/><path class="d" d="M89.07,75.83l25.04,9.8,22.68-8.5s7.19-3.27,.65-8.5l-.65-.65s5.23-3.27,.65-7.84c0,0-4.58-3.27-7.19,2.61,0,0,0-5.23-5.23-3.92,0,0-1.96,.65-2.61,1.96,0,0,.65-6.54-5.88-5.88,0,0-2.61,0-3.92,3.27,0,0-1.96-9.8-11.76-4.58,0,0-3.92,2.61-1.31,7.84l.65,1.31s-7.19-1.96-6.54,4.58c0,0,0,1.31,1.31,3.27,0,0-5.23-1.96-7.19,3.27,0,0,0,1.31,1.31,1.96Z"/><path class="e" d="M101.81,73.55s3.92-9.8,7.84,0c0,0,3.92-3.92,4.58,3.27"/><path class="e" d="M130.57,75.51s-1.31-9.15-7.84-2.61c0,0,1.23-11.32-6.9-5.34,0,0-2.25-9.04-9.44-2.51,0,0-1.96,1.31-1.31,4.58"/></g></g></svg>